<?xml version="1.0" encoding="UTF-8"?>
<svg xmlns="http://www.w3.org/2000/svg" xmlns:xlink="http://www.w3.org/1999/xlink" width="27px" height="24px" viewBox="0 0 27 24" version="1.1">
<g id="surface1">
<path style=" stroke:none;fill-rule:nonzero;fill:rgb(0%,0%,0%);fill-opacity:1;" d="M 14.25 11.25 L 14.25 0.777344 C 14.25 0.355469 14.578125 0 15 0 C 20.796875 0 25.5 4.703125 25.5 10.5 C 25.5 10.921875 25.144531 11.25 24.722656 11.25 Z M 1.5 12.75 C 1.5 7.0625 5.722656 2.359375 11.203125 1.609375 C 11.632812 1.546875 12 1.894531 12 2.328125 L 12 13.5 L 19.335938 20.835938 C 19.648438 21.148438 19.625 21.664062 19.265625 21.917969 C 17.429688 23.230469 15.179688 24 12.75 24 C 6.539062 24 1.5 18.964844 1.5 12.75 Z M 26.175781 13.5 C 26.609375 13.5 26.953125 13.867188 26.898438 14.296875 C 26.535156 16.917969 25.273438 19.246094 23.433594 20.96875 C 23.152344 21.230469 22.710938 21.210938 22.4375 20.933594 L 15 13.5 Z M 26.175781 13.5 "/>
</g>
</svg>
