<?xml version="1.0" encoding="UTF-8"?>
<svg xmlns="http://www.w3.org/2000/svg" xmlns:xlink="http://www.w3.org/1999/xlink" width="24px" height="24px" viewBox="0 0 24 24" version="1.1">
<g id="surface1">
<path style=" stroke:none;fill-rule:nonzero;fill:rgb(0%,0%,0%);fill-opacity:1;" d="M 12 1.5 C 12.664062 1.5 13.28125 1.851562 13.617188 2.429688 L 23.742188 19.679688 C 24.085938 20.257812 24.085938 20.976562 23.75 21.558594 C 23.417969 22.140625 22.796875 22.5 22.125 22.5 L 1.875 22.5 C 1.203125 22.5 0.582031 22.140625 0.25 21.558594 C -0.0859375 20.976562 -0.078125 20.253906 0.257812 19.679688 L 10.382812 2.429688 C 10.71875 1.851562 11.335938 1.5 12 1.5 Z M 12 7.5 C 11.375 7.5 10.875 8 10.875 8.625 L 10.875 13.875 C 10.875 14.5 11.375 15 12 15 C 12.625 15 13.125 14.5 13.125 13.875 L 13.125 8.625 C 13.125 8 12.625 7.5 12 7.5 Z M 13.5 18 C 13.5 17.171875 12.828125 16.5 12 16.5 C 11.171875 16.5 10.5 17.171875 10.5 18 C 10.5 18.828125 11.171875 19.5 12 19.5 C 12.828125 19.5 13.5 18.828125 13.5 18 Z M 13.5 18 "/>
</g>
</svg>
